<svg width="30" height="36" fill="none" xmlns="http://www.w3.org/2000/svg"><path fill-rule="evenodd" clip-rule="evenodd" d="M22.167 0c-4.239.171-7.698 4.619-7.215 8.297C18.87 8.6 22.629 4.209 22.167 0zm-.512 35.953c3.636-.066 7.166-6.122 8.345-9.542-6.024-2.815-6.898-10.476-1.287-14.14-2.115-3.092-5.41-3.515-6.584-3.565-1.713-.173-3.376.483-4.735 1.019-.864.34-1.605.633-2.158.633-.614 0-1.374-.302-2.227-.64-1.117-.444-2.394-.952-3.712-.928C4.962 8.855 0 12.384 0 19.505c0 7.752 5.955 16.642 9.813 16.493 1.058-.042 1.811-.362 2.59-.694.899-.383 1.832-.78 3.308-.78 1.41 0 2.301.385 3.158.756.82.355 1.608.696 2.787.673z" fill="#fff"/></svg>