<svg width="32" height="32" fill="none" xmlns="http://www.w3.org/2000/svg"><path fill-rule="evenodd" clip-rule="evenodd" d="M16 0C7.164 0 0 7.164 0 16s7.164 16 16 16 16-7.164 16-16S24.836 0 16 0zm0 2.667c7.352 0 13.333 5.981 13.333 13.333S23.352 29.333 16 29.333 2.667 23.352 2.667 16 8.648 2.667 16 2.667zm3.233 6.822c-.844-.038-1.097-.046-3.233-.046s-2.39.006-3.232.045c-2.17.099-3.181 1.127-3.28 3.28-.037.843-.047 1.096-.047 3.232s.01 2.39.047 3.232c.1 2.148 1.107 3.18 3.28 3.28.843.039 1.096.047 3.232.047 2.137 0 2.39-.01 3.233-.047 2.171-.099 3.18-1.13 3.28-3.28.038-.843.046-1.096.046-3.232s-.008-2.388-.046-3.232c-.1-2.152-1.11-3.18-3.28-3.279zM16 8c-2.173 0-2.444.01-3.299.05-2.906.133-4.52 1.745-4.653 4.651C8.009 13.556 8 13.828 8 16c0 2.173.01 2.445.048 3.299.133 2.905 1.747 4.52 4.653 4.653.855.039 1.126.048 3.299.048s2.445-.01 3.3-.048c2.901-.133 4.521-1.745 4.652-4.653.039-.854.048-1.126.048-3.299 0-2.172-.01-2.444-.048-3.299-.13-2.902-1.745-4.52-4.652-4.652C18.445 8.01 18.173 8 16 8zm-4.108 8a4.108 4.108 0 118.216 0 4.108 4.108 0 01-8.216 0zM16 18.667a2.666 2.666 0 110-5.334A2.668 2.668 0 0118.668 16 2.668 2.668 0 0116 18.667zm3.31-6.936a.96.96 0 111.92 0 .96.96 0 01-1.92 0z" fill="#333"/></svg>