<svg width="47" height="26" fill="none" xmlns="http://www.w3.org/2000/svg"><path d="M.8.24h13.4c3.04 0 5.333.827 6.88 2.48C22.627 4.373 23.4 6.6 23.4 9.4c0 1.707-.427 3.227-1.28 4.56-.853 1.307-2.013 2.32-3.48 3.04.293.24.547.52.76.84.213.32.453.787.72 1.4L23.08 26h-7.84l-2.72-6.2c-.213-.48-.48-.813-.8-1-.293-.213-.72-.32-1.28-.32H8.32V26H.8V.24zm11.48 12.48c1.093 0 1.933-.28 2.52-.84.613-.587.92-1.413.92-2.48 0-2.267-1.067-3.4-3.2-3.4h-4.2v6.72h3.96zM27.19.24h19.52V6h-12v4.2h10.52v5.84H34.71v4.2h12V26H27.19V.24z" fill="#fff"/></svg>