<svg width="30" height="36" viewBox="0 0 30 36" fill="none" xmlns="http://www.w3.org/2000/svg">
<path fill-rule="evenodd" clip-rule="evenodd" d="M22.167 0C17.928 0.171006 14.469 4.61865 14.952 8.29677C18.87 8.60128 22.629 4.20914 22.167 0ZM21.6555 35.9532C25.2915 35.8872 28.821 29.8315 30 26.4114C23.976 23.5958 23.1015 15.935 28.713 12.2719C26.598 9.1788 23.3025 8.75578 22.1295 8.70628C20.4156 8.53296 18.7527 9.18883 17.3937 9.72481C16.5298 10.0655 15.7887 10.3578 15.2355 10.3578C14.6217 10.3578 13.862 10.0561 13.0091 9.71728C11.8921 9.27362 10.6153 8.76647 9.297 8.79028C4.962 8.85479 0 12.3844 0 19.5051C0 27.2574 5.955 36.1467 9.813 35.9982C10.8714 35.9564 11.6244 35.6356 12.4031 35.3039C13.3018 34.9211 14.2347 34.5236 15.711 34.5236C17.1205 34.5236 18.0122 34.9094 18.8693 35.2804C19.6887 35.6349 20.4767 35.9759 21.6555 35.9532Z" fill="white"/>
</svg>
