<svg width="33" height="36" viewBox="0 0 33 36" fill="none" xmlns="http://www.w3.org/2000/svg">
<path fill-rule="evenodd" clip-rule="evenodd" d="M0.8565 35.4958L16.653 19.7445L22.221 25.2959L3.4425 35.7073C2.7285 36.1033 1.854 36.0973 1.1445 35.6908L0.8565 35.4958ZM15.06 18.156L0 33.1723V3.1397L15.06 18.156ZM24.471 11.9506L31.8285 16.029C32.5515 16.431 33 17.184 33 18C33 18.816 32.5515 19.569 31.8285 19.971L24.27 24.1604L18.2475 18.156L24.471 11.9506ZM0.69 0.649738C0.825 0.519239 0.9765 0.405241 1.1445 0.309242C1.854 -0.097252 2.7285 -0.103252 3.4425 0.292743L22.422 10.8151L16.653 16.5675L0.69 0.649738Z" fill="white"/>
</svg>
