<svg width="47" height="26" viewBox="0 0 47 26" fill="none" xmlns="http://www.w3.org/2000/svg">
<path d="M0.8 0.239998H14.2C17.24 0.239998 19.5333 1.06667 21.08 2.72C22.6267 4.37333 23.4 6.6 23.4 9.4C23.4 11.1067 22.9733 12.6267 22.12 13.96C21.2667 15.2667 20.1067 16.28 18.64 17C18.9333 17.24 19.1867 17.52 19.4 17.84C19.6133 18.16 19.8533 18.6267 20.12 19.24L23.08 26H15.24L12.52 19.8C12.3067 19.32 12.04 18.9867 11.72 18.8C11.4267 18.5867 11 18.48 10.44 18.48H8.32V26H0.8V0.239998ZM12.28 12.72C13.3733 12.72 14.2133 12.44 14.8 11.88C15.4133 11.2933 15.72 10.4667 15.72 9.4C15.72 7.13333 14.6533 6 12.52 6H8.32V12.72H12.28ZM27.1906 0.239998H46.7106V6H34.7106V10.2H45.2306V16.04H34.7106V20.24H46.7106V26H27.1906V0.239998Z" fill="white"/>
</svg>
